<?xml version="1.0" encoding="UTF-8"?><svg id="Layer_2" xmlns="http://www.w3.org/2000/svg" viewBox="0 0 676.67 251.39"><defs><style>.cls-1{stroke-width:0px;}</style></defs><g id="Layer_1-2"><path class="cls-1" d="M461.05,69.75c1.46.85,2.91,1.71,4.37,2.55,3.14,1.81,6.88,3.05,9.27,5.57,2.97,3.12,5.92,3.32,9.43,2.27,8.24-2.47,16.43-5.1,24.66-7.58,14.14-4.25,28.35-8.28,42.43-12.71,4.05-1.28,7.82-3.52,11.61-5.51,5.53-2.9,11.01-5.88,16.41-9.02,1.09-.63,1.7-2.08,2.53-3.15-1.14-.48-2.27-1.34-3.42-1.37-4.64-.1-9.3-.08-13.93.17-6.18.34-8.52-2.18-7.79-8.26.4-3.36.13-6.81.43-10.19.11-1.19.7-2.81,1.61-3.38,2.89-1.8,5.88-4.03,9.1-4.61,14.52-2.61,29.16-4.52,43.69-7.06,12.06-2.11,23.95-5.32,36.06-6.96,7.12-.97,14.62-.47,21.79.55,6.55.93,6.18,7.49,7.13,12.27,1.12,5.64-1.63,9.44-6.61,12.55-5.29,3.3-9.75,7.89-14.78,11.64-3.29,2.45-7.23,4.06-10.37,6.65-9.4,7.74-21.71,7.6-32.11,12.36-5.57,2.55-9.98,7.54-15.29,10.82-6.26,3.87-12.9,7.12-19.44,10.54-2.61,1.36-5.35,2.46-8.06,3.63-1.8.78-3.66,2.12-5.47,2.09-12.49-.19-23.15,6.71-35.02,8.85-1.03.18-1.91,1.22-2.83,1.9-3.51,2.58-7.01,4.34-11.78,4.44-3.88.08-7.71,2.6-11.56,4.05-1.39.52-2.72,1.4-4.15,1.6-12.25,1.73-13.92,3.49-15.89,14.89-1.89,10.93-3.85,21.88-6.59,32.61-1.7,6.64-3.53,14.06-7.74,19.07-7.02,8.35-9.79,20.62-21.02,25.05-8.71,3.44-16.37,9.53-26.13,10.38-1.18.1-2.94.84-3.32,1.75-2.85,6.9-9.44,8.4-15.31,10.88-5.95,2.52-11.97,4.9-18.06,7.09-1.81.65-3.93.41-5.9.63-1.63.18-3.58-.07-4.81.75-1.49.99-2.38,2.89-3.53,4.4,1.55,1.12,2.98,2.5,4.68,3.28,2.38,1.09,5.09,2.71,7.44,2.4,7.18-.95,13.98,6.43,21.57.16,3.21-2.65,8.42-2.67,10.19-7.75.28-.81,3.39-1.32,4.75-.81.91.34,1.47,2.76,1.4,4.22-.06,1.37-.79,3.29-1.85,3.93-5.19,3.13-10.57,5.95-15.93,8.8-1.58.84-3.25,1.68-4.98,2.05-5.89,1.25-11.87,3.33-17.75,3.15-7.87-.24-15.67-2.43-23.54-3.51-2.55-.35-5.22.16-7.83.29-1.15.06-2.43.51-3.44.16-9.52-3.3-19.82-4.72-27.21-12.97-2.13-2.38-6.73-2.36-9.78-4.15-6.33-3.73-12.8-7.42-18.45-12.07-11.5-9.46-17.4-23.43-26.71-34.68-1.15-1.39-3.41-2.72-5.1-2.65-6.46.29-12.76,1.12-18.18,5.6-2.41,1.99-6,2.61-9.13,3.62-9.29,3-18.62,5.89-27.94,8.84-.47.15-.98.62-1.37.53-7.38-1.64-11.94,4.26-17.83,6.59-1.38.55-2.71,1.27-4.12,1.73-10.82,3.48-21.64,6.98-32.49,10.35-7.48,2.32-15.07,4.33-22.53,6.72-4.09,1.31-8.54,2.42-11.9,4.89-4.43,3.24-9.1,3.53-14.07,3.7-1.82.06-3.65.5-5.45.37-1.64-.12-3.89-.23-4.75-1.27-3.45-4.2-7.94-4.22-12.71-4.22-4.92,0-9.84-.73-14.75-.58-3.92.12-8.08.43-11.66,1.85-4.85,1.93-9.14,1.84-13.96.12-2.36-.84-5.41-.56-7.94.04-3.33.79-6.57,2.17-9.66,3.7-6.54,3.23-11.31-.3-16.1-3.86-2.58-1.92-1.84-11.83,1.15-15.2,3.99-4.49,8.98-7.23,14.94-8.17,1.28-.2,2.82-.27,3.72-1.02,6.79-5.69,14.57-9.38,22.95-11.97,1.09-.34,2.15-.85,3.13-1.43,6.37-3.74,12.58-7.77,19.09-11.23,8.43-4.48,16.97-8.82,25.71-12.65,6.89-3.02,14.15-5.19,21.25-7.72.63-.22,1.31-.29,1.92-.55,8.64-3.61,17.01-7.64,26.13-10.35,7.43-2.21,13.76-8.25,20.46-12.75,6.41-4.31,13.34-5.61,21.05-5.72,7.22-.1,14.49.54,21.63-3.52,8.84-5.03,17.73-9.78,26.29-15.39,4.82-3.16,11.09-6.47,18.16-5.49,3.25.45,6.85-.87,10.14-1.88,1.04-.32,1.8-2.17,2.29-3.47,1.33-3.53,2.28-7.2,3.67-10.7,2.35-5.93,5.04-11.72,7.36-17.65,2.17-5.55,3.76-11.34,6.16-16.78,1.9-4.3,3.99-8.85,7.15-12.19,5.85-6.18,12.55-11.57,18.91-17.28.61-.55,1.19-1.37,1.89-1.52,8.83-1.86,17.62-4.36,26.56-5.19,8.59-.8,17.44-.54,26,.58,6.63.87,13,3.78,19.48,5.79,2.44.76,4.89,1.5,7.31,2.34,4.64,1.61,11.46,2.02,13.33,5.26,2.36,4.11,5.61,5.1,8.81,6.76,2.71,1.41,6.49,1.02,8.86,2.73,5.02,3.63,10.45,1.4,15.5,2.33,15.79,2.9,29.83-5.16,44.94-6.14,4.15-.27,8.11-2.86,12.26-3.98,7.87-2.12,15.85-3.83,23.72-5.95,6.35-1.71,12.54-4,18.91-5.59,4.79-1.2,9.74-1.92,14.67-2.37,1.42-.13,3.59,1.08,4.28,2.32.49.88-.54,3.3-1.6,4.19-2.69,2.28-5.16,4.2-3.33,8.36.18.41-2.62,2.42-4.26,3.26-1.2.61-3.15.04-4.09.82-9.5,7.85-21.17,9.71-32.62,12.28-2.71.61-5.22,2.15-7.93,2.78-6.85,1.58-13.91,2.39-20.6,4.46-5.56,1.72-10.7,4.8-16.03,7.27.05.53.09,1.06.14,1.59ZM436.12,179.61c4.92-3.33,9.46-5.58,12.91-8.94,5.05-4.94,9.21-10.79,13.96-16.05,7.39-8.2,8.33-13.73,3.69-23.88-.28-.6-.44-1.26-.74-1.85-1.15-2.23-1.7-4.16.88-6.06.85-.62,1.11-2.72.82-3.94-.15-.61-2.21-1.21-3.31-1.07-3.22.42-6.47.96-9.58,1.91-7.98,2.43-15.13,7.82-24.28,6.14-1.77-.33-3.93,1.4-5.88,2.24-5.1,2.17-10.17,4.37-15.27,6.54-6.74,2.87-15.1,1.25-20.69,7.47-.65.72-2.15.71-3.27.96-6.95,1.6-14.02,2.79-20.81,4.89-4.76,1.47-9.07,4.37-13.72,6.28-4.97,2.05-10.01,4.06-15.2,5.41-6.72,1.75-13.68,2.56-20.38,4.39-1.55.42-3.64,3.46-3.42,5.01.71,5.02,1.13,10.85,3.98,14.62,4.03,5.34.68,7.16-2.29,9.95-.97.91-2.27,1.82-2.59,2.96-.48,1.71-.79,3.91-.07,5.35.37.73,3.26.68,4.79.23,2.03-.59,3.78-2.09,5.78-2.86,1.26-.48,3.1-.94,4.11-.38,4.31,2.38,8.34,5.27,12.63,7.71,1.73.98,3.85,1.84,5.77,1.81,6.75-.11,13.62-3.21,20.15,1.09.34.23,1.04.25,1.41.06,6.51-3.33,13.35-4.81,20.66-3.94.3.04.64-.16.94-.29,9.5-4.22,18.98-8.47,28.49-12.64,1.01-.44,2.21-.7,3.3-.66,3.65.15,8.53-4.09,7.51-7.46-1.71-5.63,1.11-9.73,3.03-14.43,1.55-3.8,3.67-4.56,7.85-3.42-.33,3.68-.66,7.39-1.15,12.85ZM307.31,61.92c4.79-2.57,8.9-4.93,13.14-7.02,7.58-3.74,7.67-3.63,7.86,4.5,0,.33-.07.7.05.99,1.87,4.66-.57,7.5-4.09,9.99-4.45,3.16-8.94,6.27-13.17,9.7-3.95,3.21-3.55,5.9.67,8.76.84.57,1.78,1.79,1.73,2.66-.04.77-1.33,1.56-2.18,2.18-3.68,2.68-7.95,4.82-10.86,8.16-1.35,1.54-.06,5.38.03,8.18,1.74-.2,3.5-.68,5.2-.53,1.6.14,3.35.65,4.63,1.55.76.54,1.38,2.5.98,3.24-1.45,2.71-3.44,5.12-5.04,7.76-.61,1-1.28,2.52-.94,3.44,1.42,3.91,3.21,7.68,5.15,12.15,5.67-1.3,12.6.22,18.56-4.26,3.68-2.76,7.65-5.46,11.92-7.02,6.63-2.43,13.64-3.83,20.45-5.78,1.72-.49,3.32-1.43,4.97-2.17,5.65-2.56,11.18-5.41,16.96-7.62,7.23-2.76,14.66-4.97,21.98-7.49,2.19-.75,4.34-2.54,6.45-2.46,8.13.33,14-4.59,20.44-8.13,3.58-1.97,3.07-6.82-.53-8.94-1.16-.68-1.85-2.12-2.87-3.08-1.24-1.17-2.58-3.1-3.93-3.14-6.79-.21-10.18-4.82-13.57-9.6-.76-1.08-1.32-2.52-2.36-3.14-10.38-6.11-20.75-12.26-31.37-17.93-1.94-1.04-5.03,0-7.58.17-2.92.21-5.83.53-8.75.8-.15-.72-.29-1.43-.44-2.15,2.67-.97,5.34-1.94,8-2.91-2.33-1.45-4.64-1.63-6.93-1.98-1.33-.21-2.95-.32-3.85-1.14-3.42-3.08-12.62-4.07-16.47-1.69-2.22,1.38-4.58,2.64-7.03,3.54-7.55,2.77-15.5,4.07-22.31,9.24-3.98,3.02-4.95,5.93-4.92,11.12ZM90.1,201.87c2.85,6.45,7.13,7.89,12.81,5.45,2.84-1.22,5.59-2.86,8.55-3.54,8.66-2,17.37-3.82,26.13-5.3,5.84-.99,12.21-.25,13.63-8.54.43-2.53,3.08-3.53,5.5-1.47,3.72,3.16,5.78,2.21,7.79-2.09.85-1.81,3.61-3.25,5.77-3.8,5.12-1.3,10.43-1.84,15.6-2.95,1.46-.31,2.7-1.58,4.08-2.33,1.88-1.02,3.72-2.41,5.74-2.82,3.71-.75,7.61-.6,11.31-1.36,5.15-1.07,10.18-2.68,15.29-3.97,3.16-.8,6.4-1.32,5.47-5.95-.14-.7.57-2.02,1.24-2.36,3.78-1.89,7.52-4.12,11.55-5.22,9.41-2.57,11.51-10.15,13.02-18.09.27-1.43-1.61-4.71-2.13-4.64-5.44.78-11.26,1.11-16.09,3.42-12.65,6.07-24.84,13.11-37.29,19.61-1.12.58-3.38.65-4.18-.07-6.37-5.78-12.48-1.9-18.56.32-3.24,1.18-5.83,2.84-7.31,6.7-2.06,5.36-6.78,6.4-12.2,4.41-1.15-.42-3.01.55-4.34,1.26-3.57,1.9-6.82,4.65-10.59,5.85-3.74,1.19-6.12,2.73-7.11,6.62-.92,3.63-7.84,7.74-11.6,7.7-2.19-.02-4.51.49-6.57,1.28-7.49,2.86-13.22,9.71-22.08,9.64-1.19,0-2.39,1.51-3.46,2.24ZM443.29,74.81c-4.36,2.85-6.98,9.12-4.53,11.55,4.07,4.04,6.08-.67,8.97-3.11.7,1.61,1.17,2.79,1.72,3.92.59,1.23,1.16,2.49,1.96,3.57.14.18,2.02-.53,2-.68-.2-1.46-.79-2.86-.95-4.32-.13-1.13-.1-2.46.4-3.41.37-.69,2.23-1.43,2.38-1.25.76.88,1.36,2.02,1.67,3.16.39,1.42.44,2.94.69,4.76,4.41-2.8,6.88-9.49,4.32-11.22-5.61-3.77-10.92-9.01-18.76-6.88-.26.07-.44.46-.87.92.31.92.66,1.95,1.01,2.99Z"/><path class="cls-1" d="M449.96,202.13c.73,5.45.5,9.34-3.99,12.11-2.47,1.52-3.61,3.92-2.42,7.3.43,1.21-1.49,3.24-2.81,5.81-1.69-2.79-2.51-4.14-2.64-4.36-4.44,1-8.19,1.93-11.97,2.6-.61.11-1.56-.86-2.05-1.55-.15-.21.66-1.58,1.19-1.7,9.47-2.13,13.08-11.14,19.68-16.61,1.42-1.18,3-2.16,5.01-3.6Z"/><path class="cls-1" d="M442.6,160.49c-1.06-4.47-2.13-7.44-2.39-10.48-.28-3.36-.31-6.89.47-10.13.65-2.71,4.74-2.92,5.76-.29,1.1,2.82,2.98,5.84.09,9.17-1.17,1.35-.65,4.05-1.27,6.02-.63,1.96-1.73,3.77-2.66,5.72Z"/></g></svg>