<?xml version="1.0" encoding="UTF-8"?><svg id="Layer_2" xmlns="http://www.w3.org/2000/svg" viewBox="0 0 2871.93 1144.4"><defs><style>.cls-1{stroke-width:0px;}</style></defs><g id="Layer_1-2"><path class="cls-1" d="M1.08,636.54c3.77.64,7.73.73,11.25,2.04,5.76,2.15,9.26.79,13.88-2.89,5.32-4.23,11.85-6.93,17.88-10.26,2.56-1.41,5.16-2.74,7.74-4.11,4.93-2.61,9.96-5.06,14.77-7.88,9.62-5.63,19.16-11.39,28.65-17.25,2.53-1.56,5.36-3.22,6.98-5.57,5.46-7.9,13.4-12.58,21.05-17.83,11.36-7.79,22.92-15.45,33.27-24.46,4.79-4.17,10.29-6.23,15.16-9.63,6.35-4.44,11.71-10.27,17.64-15.34,3.25-2.79,6.85-5.17,10.16-7.88,3.92-3.21,7.5-6.85,11.59-9.8,6.17-4.46,12.38-9.02,19.1-12.52,5.45-2.84,9.97-5.72,13.32-11.29,5.15-8.55,14-12.96,22.93-16.85.89-.39,2.21-.54,2.61-1.22,6.58-11.04,17.71-17.62,26.44-26.53,6.25-6.38,15.07-10.21,22.54-15.46,3.37-2.37,6.04-5.72,9.39-8.12,6.31-4.52,13.13-8.35,19.28-13.07,11.45-8.78,22.5-18.08,33.85-26.99,5.08-3.99,10.63-7.39,15.73-11.36,7.16-5.57,13.96-11.61,21.2-17.07,3.07-2.32,6.86-3.7,10.33-5.47,1.02-.52,2.19-.79,3.14-1.41,11.08-7.29,22.2-14.52,33.13-22.02,2.83-1.94,4.67-5.41,7.59-7.1,13.29-7.65,26.76-14.98,40.24-22.29,13.58-7.37,27.13-14.82,40.93-21.75,6.46-3.24,13.51-5.28,20.26-7.96,2.3-.92,4.55-2.03,6.7-3.27,7.32-4.22,15.38-3,22.21-.46,4.87,1.8,8.19,7.81,11.64,11.36-10.8,11.32-21.17,21.16-30.33,32.02-11.85,14.06-22.67,29-34.07,43.45-7.78,9.86-16.02,19.35-23.64,29.32-8.56,11.2-16.66,22.74-24.95,34.14-.69.94-1.25,1.98-2.01,2.86-8.53,9.84-17.09,19.65-25.63,29.48-.77.88-1.67,1.69-2.24,2.68-6.93,12.16-17.26,21.65-25.63,32.68-6.22,8.18-13.18,15.79-19.87,23.62-5.99,7.02-12.03,14-18.1,20.95-.98,1.12-2.03,2.5-3.32,2.96-5.08,1.8-6.88,5.21-6.33,10.45.12,1.11-1.35,2.44-2.19,3.59-.97,1.32-2.4,2.42-3.01,3.88-.6,1.41-.42,3.14-.58,4.74,1.56.12,3.15.51,4.67.31,2.46-.33,5.08-.62,7.26-1.7,2.2-1.09,4.01-3.04,5.85-4.77,2.19-2.05,3.88-4.91,6.4-6.28,7.72-4.19,15.62-8.07,23.66-11.61,6.45-2.84,13.23-4.91,19.78-7.52,5.03-2,10.04-4.11,14.89-6.53,9.44-4.72,16.91,1.71,25.05,4.22.91.28,1.33,2.15,2,3.27,2.3,3.84,4.35,7.87,6.98,11.47,2.89,3.94,7.21,2.86,10.99,1.75,3.48-1.02,6.62-3.28,10.12-4.16,4.45-1.11,9.32-2.53,13.63-1.75,9.28,1.67,17.32-2.43,25.87-4,7.34-1.35,13.8-6.68,21.99-4.62,1.42.36,3.29-1.1,6.33-2.24,2.57,4.08,5.79,8.41,8.04,13.21.67,1.44-1.44,4.13-2.15,6.28-.69,2.1-2.31,4.9-1.53,6.2.86,1.43,3.99,2.03,6.12,2.01,2.76-.03,5.49-1.35,8.27-1.57,4.24-.32,8.23-.69,11.09-4.5.67-.89,2.34-1.08,3.58-1.49,12.28-4.04,24.56-8.09,36.86-12.07,9.45-3.06,18.87-6.25,28.43-8.94,8.86-2.49,16.37,1.59,23.15,6.52,3.77,2.75,6.76,2.72,10.98,1.29,10.95-3.69,22.15-6.61,33.2-10,5.36-1.65,10.91-3.09,15.81-5.7,5.97-3.18,11.92-4.81,18.63-4.17,1.66.16,4.38-.17,4.98-1.21,4.05-7.05,11.71-6.2,17.82-8.67,5.31-2.15,10.62-4.33,16.04-6.17,1.8-.61,4.48-1.01,5.81-.11,3.02,2.04,5.2,1.01,7.03-1.06,3.52-3.98,7.8-4.97,12.93-6.06,6.63-1.41,12.65-5.69,18.97-8.64,1.93-.9,3.96-1.97,6.01-2.13,8.7-.67,16.82-2.88,24.38-7.41,2.01-1.21,4.82-1.01,7.18-1.75,7.57-2.37,15.01-5.17,22.66-7.21,3.71-.99,7.81-1.08,11.68-.79,3.86.29,7.14.01,10.16-2.72,4.97-4.51,11.21-5.73,17.64-5.8,6.23-.07,12.29-.14,17.34-4.64.89-.79,2.47-.96,3.77-1.1,12.88-1.43,25.73-3.38,38.65-3.95,8.18-.36,16.45,1.34,24.68,2.16,3.97.39,7.95.71,11.88,1.37,3.87.65,7.73,1.49,11.51,2.58,4.54,1.31,8.97,1.63,12.87-1.32,7.41-5.6,14.58-11.51,21.94-17.17,11.83-9.09,23.77-18.02,35.59-27.13,9.56-7.36,18.96-14.93,28.51-22.31,5.23-4.04,10.6-7.91,15.94-11.81,9.74-7.13,19.71-13.96,29.2-21.41,10.05-7.89,19.47-16.59,29.5-24.5,7.02-5.54,14.63-10.32,21.95-15.49,10.68-7.55,21.18-15.37,32.05-22.62,6.04-4.03,12.68-7.15,19.05-10.68,2.61-1.45,5.46-2.58,7.76-4.42,5.43-4.34,10.59-9.01,15.86-13.54.63-.54,1.25-1.35,1.98-1.48,10.49-1.92,16.93-10.55,25.65-15.4,11.96-6.65,23.78-13.57,35.62-20.42,11.17-6.46,22.36-12.9,33.42-19.56,2.81-1.69,4.88-4.73,7.79-6.11,4.8-2.29,9.99-3.75,15.46-5.71.33-6.29,6.6-7.71,11.66-10.14,2.02-.97,4.69-.48,6.82-1.3,4.54-1.74,9.02-3.7,13.33-5.95,3.97-2.07,7.52-4.97,11.55-6.89,9.14-4.35,18.51-8.2,27.66-12.52,2.65-1.25,4.82-3.51,7.32-5.12,3.87-2.5,8.17-4.43,11.69-7.33,7.21-5.95,17.26-6.46,24.06-13.55,2.91-3.04,8.25-3.81,12.54-5.45,3.84-1.47,7.92-2.38,11.63-4.12,6.17-2.88,12.12-6.24,18.19-9.33,1.01-.52,2.51-1.27,3.28-.89,4.62,2.27,7.49-.89,10.74-3.06,4.7-3.13,9.27-5.92,15.51-5.88,3.17.02,6.31-3.3,9.55-4.94,3.82-1.92,7.73-3.66,11.6-5.47,3.9-1.82,7.75-3.77,11.71-5.43,11.01-4.62,21.92-9.53,33.16-13.54,6.99-2.5,14.49-3.58,21.76-5.3,1.28-.3,3.04-.18,3.76-.99,4.33-4.84,10.13-5.28,15.96-5.81.66-.06,1.36-.11,1.96-.36,6.29-2.64,12.5-5.49,18.87-7.94,4.47-1.72,9.13-2.93,13.72-4.31,17.48-5.28,34.81-11.18,52.51-15.57,11.79-2.93,23.92-5.58,36.35-4.26.82.09,1.76.31,2.48.04,12.48-4.75,25.66-1.7,38.48-3.4,14.05-1.87,28.46-1.15,42.72-1.23,8.46-.05,17.12-.48,25.33,1.1,9.73,1.87,19.92,1.77,29.1,7.02,6.23,3.57,13.6,5.11,20.37,7.8,3.53,1.41,7.08,3.01,10.23,5.11,10.73,7.15,22.05,13.69,31.68,22.13,9.27,8.12,16.72,18.3,24.97,27.58.66.75,1.49,1.44,1.89,2.31,3.42,7.4,6.51,14.96,10.18,22.23,5.04,9.97,5.05,20.91,6.33,31.52,1.56,12.96,3.1,26.14,2.35,39.09-.75,12.93-4.34,25.7-6.69,38.54-.06.33-.19.64-.28.96-3.88,14.89-6.87,30.1-11.98,44.56-3,8.47-5.01,17.86-11.96,24.75-1.85,1.83-2.29,5.05-3.53,7.56-10.9,22.04-24.31,42.53-39.28,61.96-4.69,6.09-11.33,10.63-16.53,16.37-8.9,9.82-17.35,20.04-26.02,30.07-3,3.47-5.44,7.58-10.74,8.28-1.15.15-2.06,1.93-3.12,2.92-5.08,4.75-10.18,9.47-15.24,14.24-1.66,1.56-3.17,3.27-4.85,4.8-4.99,4.57-9.82,9.35-15.12,13.54-4.67,3.69-10.08,6.45-14.77,10.13-2.1,1.65-2.77,5.1-4.86,6.76-9.47,7.51-19.13,14.77-28.88,21.9-4.54,3.33-9.42,6.21-14.17,9.25-7.74,4.94-15.42,9.97-23.28,14.71-8.43,5.09-17.07,9.82-25.52,14.86-2.98,1.78-5.9,3.8-8.46,6.13-4.17,3.81-9.08,5.6-14.29,7.58-4.94,1.88-8.77,6.65-13.15,10.06-2.59,2.02-5.17,4.13-7.99,5.78-9.71,5.69-19.44,11.38-29.33,16.75-13.89,7.54-27.99,14.68-41.87,22.22-5,2.72-9.62,6.12-14.97,9.57,3.74,3.7,8.07,4.59,12.48,4.39,10.48-.49,19.79,7.64,19.91,18.06.07,5.92-.31,11.85-.61,17.76-.2,3.97,1.65,6.03,5.47,4.43,8.7-3.63,19.02-1.81,26.86-8.43,1.63-1.37,4.79-.91,7.25-1.31,3.67-.6,7.33-1.22,11-1.82,1.93-.32,3.94-1.12,5.77-.82,6.78,1.1,13.34,1.64,19.73-1.9,1.34-.74,3.52.12,5.32.11,6.08-.05,12.26.49,18.21-.43,6.44-1,12.07-.5,17.49,3.25,7.48,5.19,15.36,8.79,24.77,5.09,1.26-.49,2.95.25,4.43.17,1.96-.11,4.76.26,5.72-.85,3.67-4.27,7.87-3.13,12.37-2.5,3.26.45,6.65.28,9.95.03,7.25-.56,14.53-1.06,21.71-2.15,3.84-.59,7.43-2.71,11.27-3.52,9.75-2.06,19.61-3.61,29.34-5.74,2.58-.56,4.74-3.03,7.33-3.6,6.21-1.36,12.54-2.21,18.84-3.07,2.26-.31,4.66.25,6.9-.12,8.15-1.36,16.27-2.96,24.39-4.46.33-.06.7-.02.98-.16,16.74-8.1,35.37-4.77,52.8-8.7,5.25-1.18,10.4-2.03,16.07-.33,3.37,1.01,7.95-.48,11.49-2,3.09-1.32,5.4-.82,8.43-.27,9.78,1.77,19.67,3.03,29.56,4,7.6.74,15.29.51,22.9,1.11,13.59,1.07,27.13,3,40.73,3.5,10.63.39,21.08.66,31.71,2.28,6.06.92,12.39,1.98,18.61,2.44,6.14.45,12.08.25,17.76,3.53,2.32,1.34,5.82,1.02,8.74.85,5.4-.31,10.14.41,14.03,4.78,2.73,3.06,6.38,3.87,10.69,4.25,6.53.57,13.04,2.43,19.3,4.53,4.82,1.61,9.29,4.34,13.83,6.73,4.11,2.16,7.92,1.15,12.03-.2,5.44-1.78,11.08-2.93,16.64-4.35,1.29-.33,2.68-.44,3.84-1.02,7.89-3.92,15.72-7.97,23.61-11.9,1.77-.88,3.75-2.21,5.51-2.05,6.25.57,10.28-2.93,15.14-6.07,6.83-4.42,14.72-7.35,22.4-10.28,10.67-4.06,21.81-6.66,31.79-12.77,6.01-3.68,13.27-5.28,19.88-8.01,8.56-3.54,16.86-7.83,25.61-10.77,7.03-2.37,14.59-3.12,21.87-4.8,2.52-.58,4.93-1.74,7.34-2.75,1.53-.64,2.89-1.7,4.44-2.25,15.56-5.55,30.54-12.61,47.11-15.38,9.69-1.62,18.99-5.6,28.46-8.5,1.75-.54,3.51-1.03,5.27-1.5,9.42-2.5,18.73-6.13,28.31-7.16,10.13-1.1,18.96-5.19,28.25-8.39,12.69-4.36,25.28-9.05,38.16-12.76,7.4-2.13,15.3-2.55,22.94-3.88,4.54-.79,9-2.15,13.56-2.73,7.91-1.01,15.87-1.61,23.81-2.39,5.52-.55,9.46-3.31,12.48-8.02,2.14-3.33,4.92-6.32,7.81-9.04,1.38-1.29,3.7-1.59,6.12-2.55,0,2.23,0,3.5,0,4.76.02,4.85,2.88,6.57,6.89,8.79,5.12,2.83,9.64,7.16,13.54,11.62,1.98,2.26-2.88,10.42-6.15,12.65-14.51,9.91-30.37,8.64-46.47,6.05-1.05-.17-2.34-.02-3.29.45-7.07,3.51-14.23,5.33-21.96,2.13-.81-.33-1.97-.07-2.9.17-13.1,3.42-26.24,6.72-39.26,10.43-6.3,1.8-12.33,4.52-18.56,6.59-7.38,2.45-14.85,4.64-22.28,6.94-.79.25-1.6.47-2.37.77-5.06,1.94-10.01,4.22-15.18,5.78-9.53,2.86-19.25,5.09-28.77,7.98-8.59,2.61-16.94,6.05-25.55,8.61-10.15,3.02-20.57,5.16-30.69,8.28-10.25,3.16-20.26,7.13-30.41,10.61-8.31,2.85-16.76,5.32-25.02,8.32-8.41,3.05-16.52,7.04-25.05,9.67-6.93,2.14-14.28,2.92-21.47,4.19-2.37.42-4.58.47-4.76,3.86-.05.98-1.88,2.2-3.14,2.72-7.81,3.25-15.57,6.7-23.58,9.39-13.22,4.44-24.45,12.66-36.88,18.58-2.81,1.34-5.83,2.45-8.87,3.08-10.22,2.11-12.92,7.92-6.66,16.29,3.27,4.37,5.34,9.38,9.68,13.4,4.42,4.1,6.31,11.07,8.96,16.93,3.86,8.53,4.28,17.85,5.52,26.95.18,1.28-1.43,2.8-2.94,5.52.63,1.6,2.15,4.54,2.89,7.66.49,2.04.29,4.47-.34,6.5-1.82,5.83-3.44,11.84-6.21,17.22-3.83,7.44-8.54,14.45-13.09,21.51-2.05,3.17-5.4,5.69-6.79,9.06-3,7.26-7.91,12.11-14.98,15.15-1.49.64-3.01,1.58-4.1,2.76-4.53,4.92-9,9.81-16.34,10.3-.86.06-1.82.9-2.45,1.62-6.64,7.59-15.55,11.45-24.6,15.12-1.53.62-2.97,1.47-4.43,2.26-8.72,4.72-17.27,9.79-26.2,14.06-7.32,3.5-15.17,5.85-22.62,9.09-4.06,1.77-7.65,4.61-11.68,6.47-4.59,2.11-9.38,3.81-14.18,5.39-7.83,2.58-15.76,4.83-23.59,7.4-6.35,2.09-12.25,5.4-19.36,5.17-3.31-.11-6.67,1.65-10.01,2.57-3.91,1.09-7.96,3.47-11.68,3.02-7.57-.91-13.45,3.28-20.14,4.84-6.49,1.51-13,2.97-19.55,4.23-3.72.71-7.52.97-11.28,1.45-.99.13-2.29.82-2.89.42-6.88-4.54-12.59,1.02-18.68,2.28-3.78.79-7.22,2.45-10.95.2-.27-.16-.66-.24-.97-.2-10.53,1.39-20.33-2.53-30.46-4.09-3.91-.6-6.78-1.52-7.76-6.18-.48-2.27-3.02-4.23-4.92-6.03-2.47-2.35-3.01-4.68-1.97-8.05,1.11-3.59,1.51-7.47,1.75-11.25.45-7.13,3.15-13,7.88-18.4,2.97-3.39,4.74-7.81,7.08-11.76,1.25-2.11,2.25-4.47,3.91-6.2,6.04-6.3,12.28-12.41,18.51-18.53,1.3-1.27,2.67-2.71,4.29-3.38,11.49-4.8,19.11-14.14,27.33-22.84,3.18-3.37,6.34-6.78,11.66-6.9,1.56-.03,3.42-1.36,4.57-2.62,7.64-8.31,15.99-15.43,27.03-19.03,3.18-1.04,6.67-3.15,8.55-5.81,8.02-11.31,19.98-17.19,31.19-24.27,9.58-6.05,18.38-13.34,27.96-19.4,7.11-4.5,15.02-7.71,22.38-11.85,4.89-2.75,9.44-6.1,14.13-9.2,1.1-.73,2.06-1.96,3.25-2.22,6.85-1.49,11.36-6.51,16.79-10.3,8.1-5.66,16.9-10.34,25.65-14.99,3.42-1.82,6.72-3.47,7.05-7.57.15-1.83-.76-4.86-2.08-5.5-5.16-2.49-10.62-4.42-16.08-6.19-3.89-1.26-7.94-2.43-11.99-2.73-9.67-.7-18.88-2.97-27.79-6.67-11.09,3.31-21.52-3.35-32.48-2.16-3.62.4-7.28.9-10.89.73-3.13-.14-6.21-1.23-9.33-1.77-3.84-.67-7.68-1.5-11.56-1.75-3.94-.25-7.93.08-11.89.24-9.42.4-18.9,1.73-28.24,1.04-9.39-.7-19.25,1.28-28.18-4.25-2.95-1.83-7.34-1.55-11.1-1.8-8.86-.58-17.73-.89-26.6-1.32-.33-.02-.77-.04-.95-.25-5.09-6-9.36-2.62-14.58.36-3.25,1.86-8.07,1.73-12.06,1.3-4.16-.45-7.87-.75-11.36,1.99-.86.68-2.41,1.52-3.14,1.18-6.6-3.06-12.76.38-18.91,1.43-7.98,1.37-15.66,4.34-23.55,6.34-7.28,1.85-14.05,5.4-22.24,3.87-6.81-1.27-13.62.25-20.13,3.88-4.23,2.36-9.72,2.44-14.63,3.6-2.41.57-4.89,1.05-7.18,1.97-6.97,2.8-13.42,7-21.58,5.87-4.81-.66-9.61-.09-13.49,3.72-1.01.99-3.06,1.56-4.5,1.36-10.3-1.42-20.6-.57-29.69,3.97-9.2,4.6-16.84,1.89-25.09-1.44-5.57-2.25-11.22-4.12-15.07-9.17-.54-.71-1.7-1.28-2.61-1.33-7.22-.35-14.46-.47-21.68-.86-2.57-.14-5.39-.23-7.59-1.34-3.93-1.98-7.15-1.53-10.69.8-7.01,4.6-14.4,6.74-23.05,4.62-2.76-.68-6.79,1.08-9.34,2.94-3.12,2.27-5.53,4.4-9.77,2.79-1.53-.58-3.83.44-5.64,1.1-6.71,2.44-13.2,5.63-20.07,7.4-5.53,1.42-11.48,1.21-17.24,1.71-.16.01-.33-.03-.49-.06-3.36-.73-13.3-12.28-13.13-15.72.1-2.04.7-4.26,1.72-6.02,2.39-4.15,5.33-7.98,7.74-12.12,2.79-4.8.08-10.85-5.39-11.21-11.23-.74-22.57-1.78-33.74-1-10.59.74-21.07,3.48-31.52,5.71-2.26.48-4.06,2.8-6.28,3.81-6,2.74-12.18,5.07-18.15,7.85-10.52,4.91-20.85,10.27-31.46,14.96-3.83,1.69-8.51,1.45-12.38,3.1-7.73,3.29-15.16,7.27-22.72,10.97-6.97,3.42-13.9,6.46-21.65,8.37-12.95,3.19-25.74,7.71-37.89,13.23-7.86,3.57-15.49,6.53-24.05,7.46-5.99.65-11.56,4.08-18.04,2.15-1.33-.4-3.73,1.73-5.2,3.14-3.19,3.05-6.17,4.95-11.08,3.37-2.33-.75-5.58.94-8.29,1.89-3.8,1.33-7.37,3.38-11.23,4.44-6.37,1.75-12.89,2.94-19.35,4.38-1.78.4-3.55.85-5.34,1.22-15.42,3.18-30.87,6.25-46.26,9.6-2.58.56-3.74.06-4.43-2.32-.91-3.14-3.3-3.08-4.88-1.23-6.82,7.98-14.47,3.65-21.56,1.32-7.15-2.35-8.85-5.67-7.86-11.22,1.16-6.54,7-11.97,13.46-12.13,9.02-.22,15.13-6.23,22.14-10.58,4.28-2.66,8.84-4.99,13.52-6.85,7.62-3.03,15.43-5.56,23.17-8.27,1.88-.66,3.81-1.58,5.73-1.63,9.14-.23,16.36-4.89,23.79-9.44,3.11-1.91,6.94-2.93,10.58-3.62,4.95-.94,10.04-1.13,15.06-1.73.79-.09,1.73-.43,2.24-.99,6.72-7.27,16.08-8.12,24.87-10.44,13.5-3.56,27.56-5.84,40.25-11.3,10.67-4.59,21.27-6.75,32.5-8.39,10.61-1.55,20.92-5.12,31.39-7.68,1.73-.42,3.8-.74,5.4-.19,3.79,1.29,6.87-.31,10.42-1.05,7.34-1.53,14.75-1.96,21.44-6.15,2.88-1.81,6.81-1.96,10.27-2.82,3.52-.87,7.1-1.53,10.57-2.56,8.08-2.4,16.11-4.94,24.15-7.47,7.76-2.45,15.58-4.75,23.21-7.55,3.12-1.15,5.8-3.48,8.7-5.24,4.65-2.83,9.28-5.69,13.96-8.45,6.85-4.04,13.62-8.25,20.66-11.92,6.76-3.52,13.88-6.36,20.77-9.65,10.94-5.22,22.07-10.11,32.63-16.02,5.85-3.27,10.7-8.32,16-12.57.39-.31.79-.79,1.22-.84,7.31-.81,12.97-4.75,18.71-9,6.95-5.13,14.44-9.52,21.7-14.21.68-.44,1.42-1.14,2.14-1.14,8.67.01,13.81-6.27,19.98-10.87,5.19-3.87,10.74-7.26,16.21-10.74,8.23-5.24,16.95-9.81,24.68-15.7,8.54-6.51,16.13-14.26,24.28-21.31,3.38-2.93,7.27-5.27,10.69-8.15,10.4-8.76,20.73-17.62,31.01-26.52,11.14-9.64,22.22-19.35,33.3-29.06,5.22-4.58,10.58-9.03,15.5-13.91,6.49-6.42,14.43-12.29,18.4-20.09,4.21-8.28,10.83-14.1,15.72-21.47,5.79-8.71,11.43-17.51,17.26-26.19,3.96-5.89,8.79-11.3,12.03-17.54,4.13-7.95,7.04-16.54,10.5-24.84.64-1.53,1.47-2.99,2.06-4.54,3.51-9.15,7.99-18.07,10.22-27.52,3.21-13.61,4.75-27.62,7.03-41.45.3-1.8.34-3.85,1.27-5.29,5.71-8.83,3.83-18.16,2.36-27.56-1.03-6.56-2.19-13.18-2.32-19.79-.21-10.82-4.22-20.64-6.95-30.81-1.2-4.45-1.42-9.34-6.8-11.23-.56-.2-1.05-.86-1.37-1.42-8.42-14.39-23.17-22.39-34.33-34.02-1.87-1.95-4.72-2.95-7.08-4.45-12.61-8.05-25.05-16.4-40.25-19.05-8.49-1.48-16.91-3.42-25.36-5.12-.97-.2-1.98-.33-2.97-.34-13.62-.04-27.24.03-40.86-.12-4.64-.05-9.33-1.33-13.9-.92-17.13,1.52-34.28,3.09-51.31,5.44-11.6,1.6-23.01,4.56-34.52,6.83-2.11.42-4.33.74-6.45.56-5.72-.5-10.47,1.58-15.63,3.91-8.71,3.95-17.99,6.77-27.22,9.4-2.76.79-6.17-.6-9.26-1.07-2.62-.4-4.68-.32-6.18,2.61-1.72,3.36-4.59,5.29-8.75,5.7-2.64.26-5.34,1.83-7.62,3.39-3.37,2.29-6.4,2.74-10.26,1.02-1.87-.84-4.86-.6-6.75.34-3.54,1.76-6.61,4.44-9.94,6.64-2.88,1.9-5.52,4.11-9.57,2.01-1.28-.66-4.56.43-5.56,1.76-2.91,3.85-6.75,4.28-10.99,4.75-2.46.27-4.97,1.36-7.14,2.61-5.94,3.43-10.98,8.76-18.81,7.82-1.18-.14-2.72,1.04-3.8,1.95-4.25,3.59-8.39,7.23-14.65,5.78-.87-.2-2.01.2-2.89.62-9.58,4.53-19.06,9.27-28.71,13.63-4.9,2.21-10.19,3.55-15.13,5.69-7.16,3.1-13.9,7.46-21.3,9.62-8.1,2.37-14.2,6.73-19.62,12.83-1.13,1.27-3.71,1.18-5.53,1.95-3.88,1.64-7.72,3.4-11.53,5.19-1.03.48-1.93,1.8-2.89,1.8-6.04-.01-9.47,5.04-14.39,7.16-7.28,3.13-14.55,6.31-21.69,9.75-3.64,1.76-6.96,4.18-10.49,6.2-3.2,1.83-6.49,3.52-9.74,5.28-1.98,1.08-4.48,1.75-5.82,3.37-6.61,8.04-15.15,12.33-25.25,13.7-3.54.48-6.16,1.58-8.04,4.94-1.36,2.43-3.14,4.24-7.06,4.19-3.02-.04-6.25,3.2-9.08,5.37-1.8,1.39-2.95,3.6-4.56,5.27-3.52,3.65-7.09,7.45-12.17,3.78-4.64,5.44-9.82,9.15-16.22,11.2-1.72.55-3.55,1.06-5.01,2.06-4.91,3.37-8.16,9.19-14.98,9.82-.92.08-1.57,2.03-2.55,2.85-2.5,2.09-5.05,4.15-7.72,6.02-2.57,1.8-5.34,3.33-7.99,5.02-4.34,2.75-8.68,5.52-12.99,8.32-3.31,2.15-6.85,4.06-9.78,6.65-3.76,3.33-6.95,7.23-12.77,6.57-.82-.09-2.02,1.05-2.68,1.91-5.16,6.66-11.55,11.44-19.05,15.54-11.33,6.19-23.17,12.49-32.36,21.28-12.69,12.13-28.53,19.88-40.9,32.07-7,6.9-14.84,11.97-23.69,16.07-3.35,1.55-5.47,5.68-8.28,8.51-2.29,2.3-4.61,4.62-7.18,6.57-8.95,6.8-18.22,13.19-26.93,20.27-2.91,2.37-4.61,5.43-9.02,6.52-8.97,2.22-14.08,10.33-20.82,15.97-9.12,7.63-18.7,14.72-27.82,22.34-3.21,2.68-7.8,6.17-7.93,9.45-.16,3.73,3.14,8.66,6.38,11.29,10.34,8.41,20.51,17.15,26.48,29.06,6.23,12.42,12.82,25.04,12.42,39.76-.1,3.57.93,7.27,2.01,10.74,1.76,5.66,2.11,11.12,1.44,17.12-.7,6.27,1.39,12.81,1.16,19.19-.19,5.33-1.91,10.62-3.05,15.91-1.37,6.33-3.04,12.6-4.26,18.96-2.31,12.07-3.96,24.27-10.67,35.07-1.87,3-2.24,6.9-3.67,10.22-5.49,12.78-10.75,25.68-16.88,38.15-3,6.1-7.73,11.35-11.68,16.98-.66.94-1.8,1.87-1.86,2.86-.44,7.48-5.99,11.96-9.92,17.39-.49.67-1.21,1.22-1.55,1.96-4.19,9.16-11.64,15.3-18.94,21.87-4.32,3.89-6.43,10.19-9.76,15.26-3.04,4.63-6.27,9.15-9.62,13.57-3.47,4.58-6.9,9.25-10.87,13.38-8.48,8.85-14.99,19.2-22.66,28.64-3.2,3.93-7.97,6.55-11.56,10.22-6.24,6.39-11.95,13.3-18.19,19.68-6.47,6.61-13.24,12.93-20.01,19.25-3.76,3.5-7.92,6.58-11.64,10.12-3.68,3.52-6.71,7.76-10.59,11.02-7.21,6.06-15.82,10.74-22.02,17.65-6.59,7.34-14.82,11.47-22.8,16.38-.56.34-1.24.75-1.49,1.3-4.83,10.55-16.47,14.46-22.92,23.72-3.16,4.54-9.69,6.73-14.67,10.03-1.66,1.1-3.35,2.2-4.82,3.53-5.37,4.86-10.41,9.8-17.74,12.25-3.78,1.26-6.83,5.55-9.48,9.03-1.77,2.32-3.03,3.74-6,2.57-3.35-1.32-5.35-.08-7.31,3.04-1.69,2.69-4.76,4.51-7.18,6.76-1.21,1.12-2.2,2.5-3.53,3.43-1.26.88-2.82,1.32-4.26,1.93-2.22.94-5.89,1.33-6.45,2.86-4.11,11.3-14.35,13.45-23.79,17.03-2.45.93-4.63,2.66-6.84,4.17-5.32,3.64-10.54,7.43-15.88,11.05-4.38,2.97-8.85,5.81-13.3,8.66-3.2,2.05-6.95,3.52-9.58,6.13-7.64,7.59-17.69,10.75-26.89,15.46-1.44.74-3.13,1.09-4.75,1.34-4.59.73-8.45,2.32-11.39,6.34-2.38,3.25-5.58,5.55-10.32,3.82-1.26-.46-3.59.55-4.78,1.6-4.95,4.38-11.05,5.65-17.11,7.55-7.04,2.21-13.68,5.71-20.44,8.78-3.73,1.69-7.4,3.55-11.01,5.51-5.17,2.81-10.23,5.81-15.38,8.65-2.26,1.25-4.53,2.58-6.95,3.44-12.18,4.33-24.33,8.75-36.65,12.62-5.17,1.62-10.74,1.92-16.11,2.93-3.56.67-7.11,1.42-10.6,2.35-4.77,1.26-9.41,3.22-14.24,4-19.74,3.19-39.5,6.39-59.6,6.1-2.56-.04-5.14-.77-7.67-1.35-2.24-.51-4.4-1.32-6.63-1.88-3.65-.91-7.34-1.63-10.97-2.62-2.89-.78-5.64-2.3-8.56-2.67-6.57-.84-10.48-4.55-12.73-10.44-4.67-12.18-5.16-24.23.8-36.24,1.52-3.06,2.07-6.59,3.13-9.88,1.11-3.46,2.27-6.92,3.46-10.35.33-.94,1.16-1.77,1.26-2.7,1.56-14.24,13.97-23.08,17.99-36.13.67-2.18,3.32-3.67,4.66-5.74,2.49-3.82,4.45-8,7.08-11.71,3.58-5.08,7.43-9.98,11.43-14.74,3.41-4.06,7-8.03,10.86-11.66,5.17-4.86,8.94-10.52,12.69-16.55,4.56-7.32,9.63-14.72,17.99-18.95,2.54-1.28,3.97-4.79,5.86-7.31,2.5-3.32,4.62-6.99,7.49-9.94,13.15-13.57,26.56-26.9,39.77-40.42,6.15-6.3,12.02-12.87,18.12-19.22,1.59-1.66,3.54-2.98,5.38-4.39,1.19-.9,2.65-1.5,3.68-2.54,10.51-10.54,20.76-21.35,31.47-31.66,7.25-6.98,15.17-13.28,22.73-19.95,1.23-1.08,2.07-2.59,3.22-3.77,2.02-2.07,4.13-4.06,6.23-6.04.35-.33.95-.4,1.29-.74,6.43-6.38,12.79-12.83,19.29-19.13,1.74-1.69,3.98-2.86,5.85-4.44,2.72-2.31,5.33-4.76,7.96-7.17,5.5-5.03,10.98-10.07,16.47-15.11,5.02-4.6,10.01-9.23,15.05-13.8,9.35-8.49,18.77-16.9,28.07-25.44,2.8-2.57,5.34-5.44,7.97-8.2,2.18-2.29,4.08-4.89,6.49-6.89,11.89-9.86,23.89-19.58,35.9-29.29,1.67-1.35,3.52-2.56,5.45-3.48,4.61-2.19,7.73-5.49,10.86-9.69,4.37-5.85,10.72-10.24,16.28-15.19.85-.76,2.34-.94,2.96-1.8,9.64-13.43,24.05-21.71,35.53-33.12,11.28-11.22,23.96-20.32,37.91-27.88,3.13-1.7,6.12-4.3,8.2-7.19,8.86-12.29,21.32-20.39,33.05-29.39,2.61-2.01,4.67-4.76,7.31-6.72,7.31-5.44,15.12-10.27,22.15-16.05,10.1-8.3,19.65-17.28,29.52-25.87,4.5-3.91,9.25-7.54,13.82-11.38,2.15-1.81,4.05-3.91,6.22-5.69,4.19-3.43,8.44-6.79,12.76-10.04,2.78-2.09,5.78-3.88,8.6-5.92,3.61-2.61,7.06-5.46,10.73-8,4.33-3,4.55-7.24-.37-8.42-7.78-1.87-15.94-2.12-23.93-3.1-2.8-.34-5.59-.76-8.36-1.28-1.27-.24-2.44-1.03-3.7-1.19-4.65-.61-9.34-.93-13.98-1.61-4.8-.7-9.29-.71-12.99,3.11-6.25,6.47-14.75,5.27-22.48,6.09-12.61,1.34-24.53,5-36.49,8.85-6.77,2.17-13.86,3.31-20.77,5.05-2.05.52-3.96,1.59-5.96,2.32-4.9,1.78-9.7,4.13-14.76,5.05-4.7.86-9.05,1.43-12.45,5.31-1.45,1.65-3.71,3.13-5.83,3.58-8.37,1.75-16.97,2.54-25.22,4.7-5.65,1.48-12.5.89-16.27,7.19-.66,1.1-2.91,2.08-4.19,1.83-4.04-.76-6.97.71-10.07,3.07-1.64,1.25-4.19,1.37-6.37,1.84-1.28.28-2.78-.1-3.92.4-10.29,4.53-20.51,9.22-30.78,13.8-8.14,3.63-16.33,7.16-24.47,10.8-1.95.87-3.67,2.37-5.68,2.99-2.29.7-4.8.68-7.19,1.09-1.86.32-3.81.58-5.51,1.33-1.28.56-2.33,2.78-3.31,2.67-5.8-.67-9.2,3.93-13.78,5.61-6.29,2.32-13.2,2.88-20.03.19-7.5-2.95-15.22-5.33-22.92-7.73-1.23-.38-2.86.4-4.28.73-2.25.53-4.46,1.3-6.74,1.66-5.07.8-10.18,1.39-15.27,2.11-.64.09-1.6.29-1.8.72-2.28,5.05-6.66,4.91-11.19,4.99-1.45.02-3.19,1.13-4.28,2.24-4.92,5.05-11.05,7.19-17.83,7.99-1.31.16-2.7.24-3.89.74-6.46,2.75-12.87,5.65-19.32,8.43-1.36.59-2.83,1.26-4.26,1.27-8.96.09-18.28-1.55-26.8.38-9.72,2.21-11.57-3.1-13.84-9.64-.27-.78-.77-1.48-1.06-2.25-3.51-9.34-3.52-9.5-13.27-8.89-5.14.32-10.35.85-15.32,2.12-12.35,3.17-24.86,3.96-37.5,3.47-1.71-.07-3.85-.64-4.98-1.79-4.04-4.11-8.06-8.32-11.45-12.96-3.02-4.13-4.97-4.39-9.29-1.9-3.27,1.88-7.5,2.02-11.21,3.23-2.65.86-5.22,2.08-7.69,3.38-5.95,3.13-11.84,6.39-17.74,9.62-1.73.95-3.43,1.97-5.14,2.97-8.39,4.93-16.82,9.78-25.13,14.84-3.91,2.38-7.59,5.13-11.35,7.74-.54.37-.88,1.14-1.45,1.34-13.35,4.7-21.48,17.03-33.86,23.13-1.6.79-3.43,1.08-5.12,1.68-2.22.79-4.72,1.23-6.56,2.56-4.54,3.27-7.59,2.18-9.82-2.99-3.92-9.09.87-15.61,5.68-22.29,3.84-5.34,7.76-10.64,11.48-16.06,11.85-17.27,23.52-34.67,35.52-51.84,3.12-4.47,7.28-8.19,10.79-12.4,2.86-3.42,5.28-7.22,8.24-10.55,2.5-2.81,5.48-5.2,8.25-7.77.6-.56,1.56-1.04,1.74-1.72,2.77-10.79,11.73-17.1,18.25-25.13,8.48-10.45,16.45-21.53,26.2-30.66,7.87-7.37,12.76-16.43,18.95-24.76,8.71-11.74,17.27-23.6,26.17-35.19,7.78-10.13,15.97-19.96,23.95-29.94,1.14-1.43,2.15-2.97,3.18-4.48,5.79-8.5,11.38-17.14,17.45-25.43,1.88-2.57,5.23-4,7.63-6.26,1.57-1.48,2.63-3.51,3.92-5.3-2.27-.51-4.84-1.96-6.74-1.34-4.84,1.58-9.62,3.68-14.01,6.27-19.17,11.31-38.17,22.9-57.27,34.32-7.68,4.59-15.57,8.84-23.17,13.57-3.49,2.17-6.34,5.34-9.77,7.63-2.63,1.75-5.76,2.73-8.57,4.25-1.67.91-3.3,2.04-4.65,3.38-1.58,1.57-2.5,4.44-4.29,5.06-8.44,2.93-13.13,10.17-19.43,15.6-6.09,5.26-13.14,9.43-19.81,14.01-4.08,2.8-8.27,5.45-12.38,8.21-4.19,2.81-8.07,6.25-12.57,8.39-8,3.81-15.03,8.67-21.03,15.19-2.3,2.51-5.32,4.35-7.95,6.56-3.28,2.76-6.44,5.68-9.76,8.39-9.99,8.12-20.06,16.13-30.04,24.26-10.55,8.59-20.97,17.33-31.55,25.87-7.62,6.15-15.42,12.07-23.14,18.09-9.41,7.35-18.67,14.89-28.31,21.93-2.85,2.09-6.82,2.58-10.13,4.14-1.73.81-4.07,2.08-4.49,3.6-1.83,6.6-6.34,10.06-12.15,12.99-4.36,2.2-8.18,5.58-12.01,8.72-8.33,6.82-16.51,13.82-24.77,20.73-4.07,3.4-8.08,6.87-12.28,10.1-4.32,3.32-8.87,6.36-13.28,9.58-6.24,4.57-12.65,8.94-18.62,13.85-14.05,11.55-28.95,21.64-45.42,29.47-8.97,4.26-17.21,10.15-26.38,13.82-6.26,2.51-13.51,3-20.37,3.26-2.07.08-4.61-3.35-6.38-5.61-3.63-4.61-6.89-9.5-10.3-14.28.36-.69.72-1.38,1.08-2.06ZM1151.09,548.73c-.66-14.41-3.3-29.25-8.95-43.49-2.83-7.13-5.88-14.1-11.49-19.66-3.38-3.35-8.4-5.43-8.94-11.13-.05-.52-.81-1.05-1.34-1.42-4.3-2.93-10.21-3.36-12.92-8.98-.57-1.19-4.1-1.69-6.03-1.32-3.35.64-7.01,1.55-9.66,3.53-5.69,4.26-10.77,9.31-16.18,13.96-6.79,5.84-13.63,11.6-20.48,17.36-.62.52-1.49.74-2.17,1.22-3.76,2.64-7.72,5.05-11.18,8.04-7.16,6.2-13.32,13.89-21.24,18.79-9.02,5.58-16.63,12.33-23.89,19.77-.68.7-1.66,1.1-2.42,1.74-5.05,4.26-10.24,8.38-15.07,12.88-6.28,5.85-11.39,12.95-19.87,16.3-3.07,1.21-5.52,4.12-8.12,6.4-4.85,4.26-9.3,9.05-14.51,12.81-3.54,2.56-7.09,4.47-8.96,8.87-1,2.36-3.62,4.24-5.87,5.81-9.54,6.64-21.42,9.9-28.54,20.1-1.26,1.8-3.68,2.76-5.48,4.22-2.82,2.29-5.59,4.64-8.34,7.01-7.22,6.23-10.52,16.41-19.78,20.45-6.89,3.01-10.74,10.78-18.98,11.6-.86.09-2.01,2.22-2.17,3.51-.62,5.08-3.95,6.59-8.32,7.9-2.91.87-5.77,3.03-7.85,5.33-4.85,5.39-9.04,11.36-13.86,16.78-1.67,1.88-4.39,2.83-6.64,4.2-4.36,2.66-9.1,4.85-12.99,8.08-6.46,5.36-12.32,11.43-18.5,17.13-5.47,5.04-13.18,7.52-16.12,15.57-.96,2.63-4.86,4.19-7.42,6.24-2.03,1.62-4.83,2.83-5.97,4.93-4.3,7.89-11.39,12.3-18.69,16.77-3.89,2.38-7.37,5.56-10.63,8.8-4.94,4.92-9.48,10.25-14.32,15.27-.95.98-2.55,2.04-3.76,1.94-3.6-.3-5.16,1.79-6.36,4.52-2.6,5.93-6.42,10.72-11.71,14.61-4.51,3.31-9.35,6.76-12.44,11.25-3.82,5.56-7.51,10.36-14.43,11.96-1.37.32-2.52,1.95-3.6,3.13-2.92,3.15-5.21,7.38-8.76,9.29-3.88,2.1-6.39,4.88-9.06,8.08-4.3,5.14-9.11,9.86-13.81,14.66-.76.77-2.16.86-3.06,1.55-3.07,2.34-6.38,4.48-8.97,7.28-3.47,3.76-6.33,8.08-9.47,12.15-3.44,4.46-6.81,8.99-10.39,13.35-3.88,4.73-7.68,9.59-12.04,13.84-5.87,5.72-12.76,10.22-17.11,17.69-2.93,5.03-7.71,9.08-12.01,13.21-5.48,5.27-12.04,9.57-16.81,15.38-6.7,8.16-12.05,17.42-18.27,26-1.98,2.73-4.89,4.78-7.34,7.18-2.84,2.78-6.21,5.22-8.35,8.47-6.92,10.53-14.29,20.78-19.02,32.66-4.34,10.92-12.25,20.27-12.44,33.02-.11,7.17-2.96,14.25-3.88,21.46-1.11,8.75,1.05,11.07,9.97,12.39,1.81.27,3.72.14,5.45.64,3.64,1.05,7.18,2.43,10.79,3.59,3.06.99,6.29,2.9,9.22,2.55,5.64-.67,11.08-2.9,16.69-4.02,11.8-2.36,23.8-3.86,35.45-6.76,10.74-2.68,22.46-2.15,32.05-9.04.82-.59,2.27-.24,3.4-.48,9.04-1.86,18.16-2.67,26.56-7.73,10.05-6.05,20.62-12.18,31.8-15.15,9.05-2.4,16.98-5.52,24.7-10.61,4.14-2.73,9.81-3.02,14.55-4.98,7.93-3.29,15.73-6.91,23.47-10.65,3.91-1.89,7.61-4.26,11.3-6.59,2.37-1.5,4.49-3.39,6.82-4.96,4.49-3.02,8.95-6.1,13.61-8.83,3.11-1.82,6.71-2.81,9.83-4.63,5.87-3.43,11.27-7.75,17.35-10.69,15.08-7.28,28.44-17.07,41.62-27.18,10.41-7.98,20.55-16.31,31.11-24.08,10.27-7.55,21.67-13.2,29.94-23.83,4.77-6.12,13.36-9.39,20.48-13.51,4.79-2.77,10.28-4.37,14.97-7.28,4.56-2.82,8.81-6.33,12.66-10.09,6.49-6.33,12.13-13.59,20.31-18.01.28-.15.46-.49.73-.68,12.88-8.8,22.13-21.96,35.8-29.84.96-.55,1.59-1.67,2.36-2.54,3.63-4.09,7.09-8.36,10.95-12.23,2.55-2.55,5.97-6.68,8.48-6.34,5.62.77,5.45-2.31,6.37-5.72.5-1.84,1.63-3.68,2.94-5.1,3.94-4.27,8.18-8.27,12.16-12.5,7.8-8.3,15.65-16.56,23.2-25.08,5.36-6.05,10.02-12.72,15.45-18.7,6.8-7.49,14.14-14.48,21.1-21.83,2.37-2.5,5.84-5.29,6.1-8.19.64-7.15,5.15-11.35,9.49-15.87,3.41-3.56,6.21-7.18,6.59-12.47.14-2.01,2.12-3.95,3.45-5.79,3.77-5.19,8.16-10.01,11.35-15.53,6.07-10.47,11.49-21.32,17.14-32.03,2.33-4.41,5.15-8.68,6.73-13.35,4.21-12.44,8-25.03,11.7-37.63,3.05-10.38,6.87-20.47,7.1-31.68.24-11.39,2.32-22.75,3.7-34.98ZM2426.67,719.07c.15-.01.31-.03.46-.04-.2-1.8-.1-3.7-.64-5.39-1.82-5.7-3.75-11.38-5.87-16.98-4.47-11.8-10.33-22.78-19.64-31.55-7.75-7.3-17.34-6.74-24.73.83-2.24,2.3-5.12,4.84-8.08,5.44-12.13,2.45-22.43,8.64-31.63,16.17-7.92,6.48-16.91,10.6-26.06,13.94-9.65,3.51-17.66,9.16-25.56,15.1-7.97,5.99-15.29,12.85-22.92,19.3-.62.52-1.45.79-2.16,1.21-3.86,2.26-7.86,4.31-11.54,6.84-7.79,5.35-14.86,12.09-23.25,16.15-11.26,5.45-19.49,15.82-32.03,18.91-.92.23-1.73.99-2.51,1.61-5.85,4.58-11.81,9.03-17.47,13.83-5.65,4.79-12.35,9.1-16.11,15.16-4.68,7.53-11.77,11.96-17.64,17.88-5.34,5.38-11.48,9.97-17.17,15.02-.94.83-1.56,2.17-1.98,3.4-1.98,5.74-3.96,11.49-5.73,17.3-2.54,8.33-1.96,9.18,6.46,10.81.49.09.96.28,1.44.4,8.05,2.11,16.05,4.41,23.99-.68,1.36-.87,3.59-.69,5.38-.55,5.47.44,10.92,1.26,16.4,1.61,2.53.16,5.23-.01,7.65-.74,10.3-3.09,20.48-6.61,30.81-9.6,3.45-1,7.59-.03,10.79-1.4,11.1-4.77,23.23-5.96,34.3-11.16,10.46-4.91,22.07-7.34,32.9-11.55,13.33-5.18,26.38-11.08,39.56-16.65,4.43-1.88,8.93-3.62,13.29-5.63,2.51-1.16,4.93-2.61,7.21-4.18,12.01-8.28,24-16.59,35.91-25,7.29-5.16,14.78-10.13,21.54-15.93,5.09-4.37,9.22-9.86,13.66-14.96,1.06-1.22,1.78-2.79,2.43-4.3,2.43-5.64,4.4-11.51,7.25-16.92,2.31-4.4,4.7-8.3,1.62-13.29-.68-1.11-.25-2.92-.33-4.4ZM1413.92,692.84c.06.5.13,1,.19,1.51,1.61-.79,3.29-1.49,4.83-2.4,1.99-1.19,3.71-3.07,5.84-3.75,13.08-4.21,26.24-8.18,39.38-12.19.78-.24,1.67-.1,2.47-.31,11.49-3.01,23.22-5.34,34.34-9.38,5.29-1.93,9.96-5.12,15.97-5.54,4.39-.31,8.91-1.63,12.91-3.49,2.3-1.07,3.68-4.11,5.48-6.27-2.18-.96-4.58-3.06-6.5-2.68-10.79,2.1-21.47,4.79-32.18,7.34-.76.18-1.36.96-2.1,1.31-3.22,1.52-6.33,3.61-9.73,4.34-5.26,1.12-10.72,1.29-16.08,1.92-.8.09-1.62.4-2.32.8-6.93,3.99-13.86,7.51-22.39,5.96-2.2-.4-4.83.9-7.12,1.8-6.62,2.63-13.25,5.27-19.72,8.25-4.96,2.29-9.74,4.97-14.43,7.78-1,.6-1.34,2.44-1.73,3.78-.06.22,1.17,1.17,1.82,1.19,3.69.12,7.38.06,11.08.06ZM1543.91,649.02c.21.09.86.64,1.33.52,5.36-1.36,10.82-2.48,15.96-4.43,1.76-.67,3.01-3.38,3.84-5.43.33-.81-.91-3.13-1.83-3.4-4.08-1.18-8.28-1.67-11.38,2.31-2.64,3.39-5.2,6.84-7.92,10.43Z"/></g></svg>